<svg xmlns="http://www.w3.org/2000/svg" width="100" height="97" fill="none"><path fill="#fff" d="M0 47.324c0-4.236 0-6.354.539-8.31a15 15 0 0 1 2.316-4.82c1.19-1.642 2.845-2.965 6.152-5.61l26-20.8C40.358 3.502 43.033 1.361 46.001.54a15 15 0 0 1 7.998 0c2.968.821 5.643 2.962 10.994 7.242l26 20.8c3.307 2.646 4.961 3.97 6.152 5.612a15 15 0 0 1 2.316 4.82c.539 1.955.539 4.073.539 8.31v25.464c0 8.4 0 12.601-1.635 15.81a15 15 0 0 1-6.555 6.555C88.6 96.79 84.4 96.79 76 96.79H24c-8.4 0-12.601 0-15.81-1.635A15 15 0 0 1 1.635 88.6C0 85.39 0 81.189 0 72.789V47.324Z"/></svg>