<svg xmlns="http://www.w3.org/2000/svg" width="3257" height="759" fill="none"><rect width="591.993" height="383" x="490.312" y="198.76" stroke="#fff" stroke-width="92" rx="191.5"/><path fill="#fff" d="M222.359 0c41.856 0 78.771 7.848 110.745 23.544 32.554 15.696 57.552 37.786 74.992 66.271 18.021 28.486 27.032 61.622 27.032 99.409 0 37.786-9.011 70.923-27.032 99.408-17.44 28.485-42.438 50.575-74.992 66.271-31.974 15.696-68.889 23.544-110.745 23.544H93.304V614.76H0V0h222.359ZM93.304 294.735H218c37.205 0 66.563-9.591 88.072-28.775 22.091-19.184 33.136-44.763 33.136-76.736 0-31.974-11.045-57.262-33.136-75.865C284.563 94.175 255.205 84.584 218 84.584H93.304v210.151ZM1940.89 152.6c44.18 0 82.25 9.883 114.23 29.648 32.55 19.765 56.97 47.669 73.25 83.712 16.85 36.043 25.28 77.318 25.28 123.824 0 46.507-8.72 87.781-26.16 123.823-16.86 36.043-41.27 64.238-73.24 84.584-31.4 19.766-68.31 29.649-110.75 29.649-29.06 0-56.68-6.105-82.84-18.313-25.66-11.975-46.01-29.265-61.04-51.868V758.64h-89.81V165.68h86.32v61.912c13.96-23.835 34.59-42.147 61.92-54.937 27.32-13.37 54.93-20.055 82.84-20.055Zm1050.88 235.44c4.66 10.464 7.85 18.312 9.6 23.544 2.32 5.232 6.1 13.371 11.33 24.416 5.82 13.371 10.47 24.416 13.96 33.136L3040.61 436c4.65-11.045 7.85-19.184 9.59-24.416 2.32-5.232 6.1-13.08 11.34-23.544l95.04-222.36h100.28l-266.83 592.96h-100.28l88.71-189.985-186.37-402.975h101.15l98.53 222.36ZM1615.95 614.76h-87.2v-61.912c-14.53 23.834-35.17 42.438-61.91 55.808-26.74 12.79-54.94 19.184-84.59 19.184-42.43 0-79.64-9.883-111.61-29.649-31.39-20.346-55.81-48.541-73.25-84.584-16.86-36.042-25.29-77.316-25.29-123.823 0-46.506 8.14-87.781 24.42-123.824 16.86-36.043 41.27-63.947 73.25-83.712 32.55-19.765 70.63-29.648 114.23-29.648 27.32 0 54.35 6.395 81.09 19.184 26.22 11.966 46.56 28.959 61.04 50.979V0h89.82v614.76Zm973.12-462.16c40.7 0 74.12 6.104 100.28 18.312 26.75 11.627 46.51 27.904 59.3 48.832 13.37 20.928 20.06 44.763 20.06 71.504v217.128c0 12.789 2.61 21.8 7.84 27.032 5.24 5.232 12.5 7.848 21.8 7.848 8.14 0 16.28-1.163 24.42-3.488v73.248c-8.72 2.906-18.02 5.232-27.9 6.976-9.89 2.325-20.64 3.487-32.27 3.487-19.76 0-36.91-4.65-51.45-13.952-13.95-9.301-23.25-22.962-27.9-40.983h-.87c-13.95 16.277-32.85 30.229-56.68 41.855-23.26 11.627-52.03 17.441-86.33 17.441-46.51 0-84.58-11.918-114.23-35.752-29.07-24.416-43.6-57.552-43.6-99.408 0-38.949 12.21-69.469 36.62-91.56 24.42-22.672 56.68-37.497 96.79-44.473l110.75-20.927c18.02-3.488 31.39-8.43 40.11-14.824 8.72-6.395 13.08-17.15 13.08-32.264 0-12.208-3.49-22.963-10.46-32.264-6.98-9.301-17.15-16.278-30.52-20.929-12.79-5.231-28.78-7.847-47.96-7.847-28.49 0-52.61 6.394-72.38 19.183-19.18 12.208-29.65 30.812-31.39 55.809h-91.56c1.16-30.229 10.46-56.681 27.9-79.353 18.02-23.253 41.28-40.692 69.76-52.319 29.07-12.208 61.33-18.312 96.79-18.312Zm-276.16 462.16h-89.82V0h89.82v614.76Zm365.98-228.464c-4.07 4.069-11.63 8.139-22.67 12.208-11.05 3.488-24.71 6.394-40.99 8.72l-69.76 13.952c-24.41 4.65-42.72 12.498-54.93 23.544-11.63 10.464-17.44 24.997-17.44 43.599 0 13.952 3.49 25.87 10.46 35.752 7.56 9.302 17.73 16.569 30.52 21.801 13.37 4.651 28.2 6.976 44.47 6.976 34.88 0 63.66-9.011 86.33-27.033 22.67-18.602 34.01-42.146 34.01-70.631v-68.888ZM1397.08 234.567c-28.49 0-52.61 6.396-72.38 19.185-19.76 12.208-34.88 29.938-45.34 53.191-10.47 22.672-15.7 50.287-15.7 82.841 0 33.136 5.23 61.331 15.7 84.584 10.46 22.672 25.58 40.402 45.34 53.192 19.77 12.207 43.89 18.312 72.38 18.312 26.16 0 49.41-6.104 69.76-18.312 20.34-12.79 36.33-30.811 47.96-54.064 11.62-23.834 17.44-51.739 17.44-83.712 0-31.973-5.82-59.587-17.44-82.841-11.63-23.253-27.62-40.983-47.96-53.191-20.35-12.789-43.6-19.185-69.76-19.185Zm531.6 0c-26.16 0-49.42 6.396-69.76 19.185-20.35 12.208-36.34 29.938-47.96 53.191-11.63 23.254-17.44 50.868-17.44 82.841 0 31.973 5.81 59.878 17.44 83.712 11.62 23.253 27.61 41.274 47.96 54.064 20.34 12.208 43.6 18.312 69.76 18.312 28.48 0 52.61-6.104 72.37-18.312 19.77-12.79 34.88-30.52 45.35-53.192 10.46-23.253 15.69-51.448 15.69-84.584 0-32.554-5.23-60.169-15.69-82.841-10.47-23.253-25.58-40.983-45.35-53.191-19.76-12.789-43.89-19.185-72.37-19.185Z"/></svg>