<svg xmlns="http://www.w3.org/2000/svg" width="1164" height="216" fill="none"><rect width="51.421" height="93.997" y="58.398" fill="#5B79FF" rx="25.71"/><rect width="51.421" height="161.884" x="59.477" y="28.961" fill="#5B79FF" rx="25.71"/><rect width="51.421" height="216.003" x="118.969" fill="#5B79FF" rx="25.71"/><rect width="51.421" height="157.611" x="178.445" fill="#5B79FF" rx="25.71"/><rect width="51.421" height="162.833" x="237.93" y="23.742" fill="#5B79FF" rx="25.71"/><path fill="#D7DFFF" fill-rule="evenodd" d="M573.881 67.707c17.14 0 32.341 2.661 45.6 7.985 13.26 5.325 23.608 12.827 31.047 22.507 7.438 9.68 11.158 20.731 11.158 33.154 0 12.423-3.72 23.475-11.158 33.155-7.439 9.68-17.787 17.182-31.047 22.506-13.259 5.324-28.379 7.986-45.358 7.986-17.14 0-32.34-2.662-45.6-7.986-13.259-5.324-23.608-12.826-31.047-22.506-7.438-9.68-11.157-20.732-11.157-33.155 0-12.423 3.719-23.393 11.157-32.912 7.439-9.68 17.788-17.183 31.047-22.507 13.26-5.485 28.379-8.227 45.358-8.227Zm0 29.766c-8.247 0-15.524 1.371-21.83 4.114-6.145 2.743-10.915 6.695-14.311 11.858-3.234 5.001-4.851 10.971-4.851 17.908 0 6.776 1.617 12.746 4.851 17.908 3.396 5.002 8.166 8.874 14.311 11.617 6.306 2.742 13.583 4.114 21.83 4.114 8.408 0 15.685-1.372 21.83-4.114 6.306-2.743 11.076-6.615 14.31-11.617 3.396-5.162 5.094-11.132 5.094-17.908 0-6.937-1.698-12.907-5.094-17.908-3.234-5.163-8.004-9.115-14.31-11.858-6.145-2.743-13.422-4.114-21.83-4.114ZM1164 190.402h-43.42v-24.815c-4.34 7.826-10.81 14.324-19.4 19.491-10.84 6.615-23.61 9.922-38.33 9.922-13.58 0-25.71-2.662-36.38-7.986-10.51-5.486-18.76-13.069-24.74-22.749-5.982-9.68-8.974-20.57-8.974-32.67 0-12.423 3.073-23.555 9.214-33.396 6.15-9.841 14.64-17.505 25.47-22.99 11-5.486 23.45-8.228 37.36-8.228 9.86 0 18.91 1.452 27.16 4.356s15.28 7.098 21.1 12.584a46.747 46.747 0 0 1 6.55 7.358V21H1164v169.402Zm-84.17-93.655c-8.41 0-15.68 1.371-21.83 4.114-5.98 2.743-10.67 6.695-14.06 11.858-3.24 5.002-4.86 10.971-4.86 17.908 0 10.487 3.56 18.796 10.68 24.926 7.11 5.97 16.89 8.955 29.35 8.955 8.08 0 15.28-1.372 21.58-4.115 6.31-2.742 11.08-6.695 14.31-11.858 3.4-5.163 5.1-11.132 5.1-17.908 0-6.776-1.62-12.745-4.85-17.908-3.24-5.163-7.93-9.115-14.07-11.858-6.15-2.743-13.26-4.114-21.35-4.114Z" clip-rule="evenodd"/><path fill="#D7DFFF" d="M399.771 67.707c15.847 0 29.915 2.258 42.204 6.775 12.451 4.518 22.072 10.971 28.864 19.36l4.366 5.809-40.264 6.534c-.485-.968-1.536-2.259-3.153-3.872-3.396-3.227-7.843-5.567-13.341-7.019-5.336-1.613-11.642-2.42-18.919-2.42-9.217 0-16.413 1.13-21.587 3.389-5.174 2.258-7.762 5.162-7.762 8.712 0 2.742 1.455 4.921 4.366 6.534 2.911 1.613 8.166 2.743 15.766 3.388l32.017 2.178c20.051 1.452 34.604 5.001 43.66 10.648 9.217 5.485 13.826 13.633 13.826 24.442 0 8.389-3.234 15.811-9.703 22.265-6.306 6.453-15.28 11.454-26.923 15.004-11.642 3.549-25.226 5.324-40.749 5.324-17.626 0-33.553-2.662-47.783-7.986-14.23-5.486-24.579-12.826-31.047-22.022-1.132-1.452-2.669-3.953-4.609-7.502l41.477-5.808c.646 1.774 1.779 3.468 3.395 5.081 3.72 4.195 8.894 7.422 15.524 9.681 6.63 2.258 14.472 3.388 23.528 3.388 9.055 0 16.251-1.21 21.587-3.63 5.498-2.582 8.247-5.889 8.247-9.922 0-2.259-.728-4.115-2.183-5.567-1.294-1.452-3.477-2.581-6.549-3.388-3.072-.968-7.438-1.775-13.098-2.42l-32.017-3.145c-18.272-1.775-31.613-5.244-40.021-10.407-8.247-5.324-12.371-13.068-12.371-23.232 0-7.583 2.992-14.44 8.975-20.57 6.145-6.13 14.715-10.89 25.711-14.278 10.995-3.55 23.851-5.324 38.566-5.324Zm313.328 64.13c0 10.164 2.668 17.909 8.005 23.233 5.497 5.162 13.178 7.743 23.042 7.743 10.673 0 19.001-3.065 24.984-9.195 5.983-6.292 8.974-14.844 8.974-25.653v-56.87h44.144v119.307h-43.416V166.44c-3.958 6.483-8.89 11.89-14.797 16.218-10.349 7.421-23.285 11.132-38.808 11.132-11.643 0-21.749-2.097-30.32-6.292-8.408-4.356-14.876-10.648-19.404-18.876-4.366-8.39-6.549-18.312-6.549-29.767v-67.76h44.145v60.742Zm215.748-64.13c11.643 0 21.669 2.178 30.077 6.534 8.409 4.356 14.796 10.648 19.162 18.876 4.528 8.228 6.791 18.15 6.791 29.766v67.519h-44.144v-60.743c0-10.002-2.75-17.666-8.247-22.99-5.337-5.324-12.937-7.986-22.801-7.986-10.51 0-18.838 3.065-24.982 9.196-5.983 6.131-8.975 14.601-8.975 25.41v57.113h-44.145V71.094h43.418v24.004c3.957-6.442 8.889-11.782 14.795-16.017 10.349-7.583 23.366-11.374 39.051-11.374Z"/></svg>